# Blender v2.78 (sub 0) OBJ File: 'SupportBeams.blend'
# www.blender.org
mtllib SupportBeams.mtl
g MetalRoof_h_beam.001
v 3.442322 0.649446 -2.003118
v 3.442323 0.649446 2.003118
v 0.257679 0.649446 2.003118
v 0.257676 0.649446 -2.003118
v 3.152810 0.649446 2.003118
v 2.863297 0.649446 2.003118
v 2.573783 0.649446 2.003118
v 2.284270 0.649446 2.003118
v 1.994757 0.649446 2.003118
v 1.705244 0.649446 2.003118
v 1.415731 0.649446 2.003118
v 1.126218 0.649446 2.003118
v 0.836705 0.649446 2.003118
v 0.547192 0.649446 2.003118
v 0.547189 0.649446 -2.003118
v 0.836703 0.649446 -2.003118
v 1.126216 0.649446 -2.003118
v 1.415729 0.649446 -2.003118
v 1.705243 0.649446 -2.003118
v 1.994756 0.649446 -2.003118
v 2.284269 0.649446 -2.003118
v 2.573783 0.649446 -2.003118
v 2.863296 0.649446 -2.003118
v 3.152809 0.649446 -2.003118
v 0.402435 0.755150 2.003118
v 3.297566 0.755150 -2.003119
v 3.297566 0.755150 2.003118
v 3.008053 0.755150 2.003118
v 2.718540 0.755150 2.003118
v 2.429027 0.755150 2.003118
v 2.139514 0.755150 2.003118
v 1.850001 0.755150 2.003118
v 1.560488 0.755150 2.003118
v 1.270974 0.755150 2.003118
v 0.981461 0.755150 2.003119
v 0.691948 0.755150 2.003118
v 0.402433 0.755150 -2.003118
v 0.691946 0.755150 -2.003118
v 0.981459 0.755150 -2.003118
v 1.270973 0.755150 -2.003118
v 1.560486 0.755150 -2.003118
v 1.849999 0.755150 -2.003118
v 2.139513 0.755150 -2.003118
v 2.429026 0.755150 -2.003118
v 2.718539 0.755150 -2.003118
v 3.008052 0.755150 -2.003118
v 3.442322 0.649446 -2.003118
v 3.442323 0.649446 2.003118
v 0.257679 0.649446 2.003118
v 0.257676 0.649446 -2.003118
v 3.152810 0.649446 2.003118
v 2.863297 0.649446 2.003118
v 2.573783 0.649446 2.003118
v 2.284270 0.649446 2.003118
v 1.994757 0.649446 2.003118
v 1.705244 0.649446 2.003118
v 1.415731 0.649446 2.003118
v 1.126218 0.649446 2.003118
v 0.836705 0.649446 2.003118
v 0.547192 0.649446 2.003118
v 0.547189 0.649446 -2.003118
v 0.836703 0.649446 -2.003118
v 1.126216 0.649446 -2.003118
v 1.415729 0.649446 -2.003118
v 1.705243 0.649446 -2.003118
v 1.994756 0.649446 -2.003118
v 2.284269 0.649446 -2.003118
v 2.573783 0.649446 -2.003118
v 2.863296 0.649446 -2.003118
v 3.152809 0.649446 -2.003118
v 0.402435 0.755150 2.003118
v 3.297566 0.755150 -2.003119
v 3.297566 0.755150 2.003118
v 3.008053 0.755150 2.003118
v 2.718540 0.755150 2.003118
v 2.429027 0.755150 2.003118
v 2.139514 0.755150 2.003118
v 1.850001 0.755150 2.003118
v 1.560488 0.755150 2.003118
v 1.270974 0.755150 2.003118
v 0.981461 0.755150 2.003119
v 0.691948 0.755150 2.003118
v 0.402433 0.755150 -2.003118
v 0.691946 0.755150 -2.003118
v 0.981459 0.755150 -2.003118
v 1.270973 0.755150 -2.003118
v 1.560486 0.755150 -2.003118
v 1.849999 0.755150 -2.003118
v 2.139513 0.755150 -2.003118
v 2.429026 0.755150 -2.003118
v 2.718539 0.755150 -2.003118
v 3.008052 0.755150 -2.003118
vt 0.0081 0.0528
vt 0.0081 0.0081
vt 0.9615 0.0081
vt 0.9615 0.0528
vt 0.0081 0.9472
vt 0.0081 0.9025
vt 0.9615 0.9025
vt 0.9615 0.9472
vt 0.0081 0.8577
vt 0.0081 0.8130
vt 0.9615 0.8130
vt 0.9615 0.8577
vt 0.0081 0.7683
vt 0.0081 0.7236
vt 0.9615 0.7236
vt 0.9615 0.7683
vt 0.0081 0.6789
vt 0.0081 0.6342
vt 0.9615 0.6342
vt 0.9615 0.6789
vt 0.0081 0.5894
vt 0.0081 0.5447
vt 0.9615 0.5447
vt 0.9615 0.5894
vt 0.0081 0.5000
vt 0.0081 0.4553
vt 0.9615 0.4553
vt 0.9615 0.5000
vt 0.0081 0.4106
vt 0.0081 0.3659
vt 0.9615 0.3658
vt 0.9615 0.4106
vt 0.0081 0.3211
vt 0.0081 0.2764
vt 0.9615 0.2764
vt 0.9615 0.3211
vt 0.0081 0.2317
vt 0.0081 0.1870
vt 0.9615 0.1870
vt 0.9615 0.2317
vt 0.0081 0.1423
vt 0.0081 0.0976
vt 0.9615 0.0975
vt 0.9615 0.1423
vt 0.0081 0.9919
vt 0.9615 0.9919
vt 0.0081 0.0528
vt 0.9615 0.0528
vt 0.9615 0.0081
vt 0.0081 0.0081
vt 0.0081 0.9472
vt 0.9615 0.9472
vt 0.9615 0.9025
vt 0.0081 0.9025
vt 0.0081 0.8577
vt 0.9615 0.8577
vt 0.9615 0.8130
vt 0.0081 0.8130
vt 0.0081 0.7683
vt 0.9615 0.7683
vt 0.9615 0.7236
vt 0.0081 0.7236
vt 0.0081 0.6789
vt 0.9615 0.6789
vt 0.9615 0.6342
vt 0.0081 0.6342
vt 0.0081 0.5894
vt 0.9615 0.5894
vt 0.9615 0.5447
vt 0.0081 0.5447
vt 0.0081 0.5000
vt 0.9615 0.5000
vt 0.9615 0.4553
vt 0.0081 0.4553
vt 0.0081 0.4106
vt 0.9615 0.4106
vt 0.9615 0.3658
vt 0.0081 0.3659
vt 0.0081 0.3211
vt 0.9615 0.3211
vt 0.9615 0.2764
vt 0.0081 0.2764
vt 0.0081 0.2317
vt 0.9615 0.2317
vt 0.9615 0.1870
vt 0.0081 0.1870
vt 0.0081 0.1423
vt 0.9615 0.1423
vt 0.9615 0.0975
vt 0.0081 0.0976
vt 0.0081 0.9919
vt 0.9615 0.9919
vn -0.5897 0.8076 0.0000
vn 0.5897 0.8076 -0.0000
vn 0.5897 -0.8076 -0.0000
vn -0.5897 -0.8076 0.0000
usemtl None
s off
f 37/1/1 4/2/1 3/3/1 25/4/1
f 26/5/1 24/6/1 5/7/1 27/8/1
f 46/9/1 23/10/1 6/11/1 28/12/1
f 45/13/1 22/14/1 7/15/1 29/16/1
f 44/17/1 21/18/1 8/19/1 30/20/1
f 43/21/1 20/22/1 9/23/1 31/24/1
f 42/25/1 19/26/1 10/27/1 32/28/1
f 41/29/1 18/30/1 11/31/1 33/32/1
f 40/33/1 17/34/1 12/35/1 34/36/1
f 39/37/1 16/38/1 13/39/1 35/40/1
f 38/41/1 15/42/1 14/43/1 36/44/1
f 16/38/2 38/41/2 36/44/2 13/39/2
f 17/34/2 39/37/2 35/40/2 12/35/2
f 18/30/2 40/33/2 34/36/2 11/31/2
f 19/26/2 41/29/2 33/32/2 10/27/2
f 20/22/2 42/25/2 32/28/2 9/23/2
f 21/18/2 43/21/2 31/24/2 8/19/2
f 22/14/2 44/17/2 30/20/2 7/15/2
f 23/10/2 45/13/2 29/16/2 6/11/2
f 24/6/2 46/9/2 28/12/2 5/7/2
f 1/45/2 26/5/2 27/8/2 2/46/2
f 15/42/2 37/1/2 25/4/2 14/43/2
f 83/47/3 71/48/3 49/49/3 50/50/3
f 72/51/3 73/52/3 51/53/3 70/54/3
f 92/55/3 74/56/3 52/57/3 69/58/3
f 91/59/3 75/60/3 53/61/3 68/62/3
f 90/63/3 76/64/3 54/65/3 67/66/3
f 89/67/3 77/68/3 55/69/3 66/70/3
f 88/71/3 78/72/3 56/73/3 65/74/3
f 87/75/3 79/76/3 57/77/3 64/78/3
f 86/79/3 80/80/3 58/81/3 63/82/3
f 85/83/3 81/84/3 59/85/3 62/86/3
f 84/87/3 82/88/3 60/89/3 61/90/3
f 62/86/4 59/85/4 82/88/4 84/87/4
f 63/82/4 58/81/4 81/84/4 85/83/4
f 64/78/4 57/77/4 80/80/4 86/79/4
f 65/74/4 56/73/4 79/76/4 87/75/4
f 66/70/4 55/69/4 78/72/4 88/71/4
f 67/66/4 54/65/4 77/68/4 89/67/4
f 68/62/4 53/61/4 76/64/4 90/63/4
f 69/58/4 52/57/4 75/60/4 91/59/4
f 70/54/4 51/53/4 74/56/4 92/55/4
f 47/91/4 48/92/4 73/52/4 72/51/4
f 61/90/4 60/89/4 71/48/4 83/47/4
g H-Beam_h_beam
v -0.500000 -0.500000 2.003989
v -0.500000 0.500000 2.003989
v -0.500000 -0.500000 -2.003989
v -0.500000 0.500000 -2.003989
v -0.500000 0.350000 2.003989
v -0.500000 0.350000 -2.003989
v -0.500000 -0.350000 -2.003989
v -0.500000 -0.350000 2.003989
v -0.250000 0.350000 2.003989
v -0.250000 0.350000 -2.003989
v -0.250000 -0.350000 -2.003989
v -0.250000 -0.350000 2.003989
v 0.499999 -0.500000 -2.003989
v 0.499999 0.500000 -2.003989
v 0.500000 -0.500000 2.003989
v 0.500000 0.500000 2.003989
v 0.499999 0.350000 -2.003989
v 0.500000 0.350000 2.003989
v 0.500000 -0.350000 2.003989
v 0.499999 -0.350000 -2.003989
v 0.249999 0.350000 -2.003989
v 0.250000 0.350000 2.003989
v 0.250000 -0.350000 2.003989
v 0.249999 -0.350000 -2.003989
vt 0.1299 0.5062
vt 0.1299 0.4877
vt 0.8701 0.4877
vt 0.8701 0.5062
vt 0.8701 0.3458
vt 0.8701 0.3643
vt 0.1299 0.3643
vt 0.1299 0.3458
vt 0.0250 0.1792
vt 0.0065 0.1792
vt 0.0250 0.1484
vt 0.8886 0.4877
vt 0.8886 0.4568
vt 0.8701 0.6234
vt 0.1299 0.6234
vt 0.1299 0.5370
vt 0.8701 0.5370
vt 0.9750 0.4877
vt 0.9750 0.4568
vt 0.9935 0.4877
vt 0.8701 0.0065
vt 0.8701 0.0374
vt 0.1299 0.0374
vt 0.1299 0.0065
vt 0.1299 0.0559
vt 0.8701 0.0559
vt 0.0065 0.0559
vt 0.0250 0.0559
vt 0.0250 0.0867
vt 0.8886 0.3951
vt 0.8886 0.3643
vt 0.1114 0.1484
vt 0.1114 0.0867
vt 0.1299 0.1792
vt 0.9750 0.3951
vt 0.1299 0.2286
vt 0.8701 0.2286
vt 0.8701 0.3149
vt 0.1299 0.3149
vt 0.9935 0.3643
vt 0.1299 0.1977
vt 0.8701 0.1977
vt 0.8701 0.1792
vt 0.1114 0.1792
vt 0.9750 0.3643
vt 0.1114 0.0559
vn -1.0000 0.0000 0.0000
vn 1.0000 0.0000 -0.0000
vn 0.0000 0.0000 1.0000
vn 0.0000 0.0000 -1.0000
vn 0.0000 1.0000 0.0000
vn 0.0000 -1.0000 0.0000
usemtl None
s off
f 97/93/5 94/94/5 96/95/5 98/96/5
f 109/97/6 106/98/6 108/99/6 110/100/6
f 110/101/7 108/102/7 114/103/7
f 98/104/8 96/95/8 102/105/8
f 103/106/5 104/107/5 101/108/5 102/109/5
f 99/110/8 103/111/8 95/112/8
f 103/113/9 99/114/9 100/115/9 104/116/9
f 93/117/5 100/115/5 99/114/5 95/118/5
f 94/119/7 97/120/7 101/121/7
f 108/102/7 94/119/7 101/121/7 114/103/7
f 101/108/10 97/93/10 98/96/10 102/109/10
f 96/95/8 106/98/8 113/122/8 102/105/8
f 106/98/8 109/123/8 113/122/8
f 115/124/7 104/125/7 93/117/7 107/126/7
f 102/105/8 113/122/8 116/127/8 103/111/8
f 115/128/6 116/129/6 113/130/6 114/131/6
f 103/111/8 116/127/8 105/132/8 95/112/8
f 115/128/9 111/133/9 112/134/9 116/129/9
f 105/135/6 112/134/6 111/133/6 107/126/6
f 114/103/7 101/121/7 104/125/7 115/124/7
f 111/136/7 115/124/7 107/126/7
f 113/130/10 109/97/10 110/100/10 114/131/10
f 94/94/9 108/99/9 106/98/9 96/95/9
f 105/132/8 116/127/8 112/137/8
f 93/117/7 104/125/7 100/138/7
f 95/118/10 105/135/10 107/126/10 93/117/10
g Beam01_beam01
v 0.234601 -0.161369 0.070975
v 0.234601 -0.161369 -0.070975
v 3.442688 -0.161369 -0.070976
v 3.442687 -0.161369 0.070975
v 0.234600 0.008972 0.070975
v 0.234601 0.008972 -0.070975
v 3.442688 0.008972 -0.070976
v 3.442687 0.008972 0.070975
v 0.234601 0.491604 0.070975
v 0.234601 0.491604 -0.070975
v 3.442688 0.491604 -0.070976
v 3.442687 0.491604 0.070975
v 0.234600 0.661945 0.070975
v 0.234601 0.661945 -0.070975
v 3.442688 0.661945 -0.070976
v 3.442687 0.661945 0.070975
v 2.733018 -0.038603 0.038327
v 2.733018 -0.038603 -0.038327
v 3.039631 0.492467 -0.038327
v 3.039631 0.492467 0.038327
v 2.653357 0.007389 0.038327
v 2.653357 0.007389 -0.038327
v 2.959971 0.538459 -0.038327
v 2.959971 0.538459 0.038327
v 2.562509 -0.038603 -0.038327
v 2.562509 -0.038603 0.038327
v 2.255895 0.492467 0.038327
v 2.255895 0.492467 -0.038327
v 2.642169 0.007389 -0.038327
v 2.642169 0.007389 0.038327
v 2.335556 0.538459 0.038327
v 2.335556 0.538459 -0.038327
v 1.938094 -0.038603 0.038327
v 1.938094 -0.038603 -0.038327
v 2.244707 0.492467 -0.038327
v 2.244707 0.492467 0.038327
v 1.858433 0.007389 0.038327
v 1.858433 0.007389 -0.038327
v 2.165047 0.538459 -0.038327
v 2.165047 0.538459 0.038327
v 1.767584 -0.038603 -0.038327
v 1.767584 -0.038603 0.038327
v 1.460971 0.492467 0.038327
v 1.460971 0.492467 -0.038327
v 1.847245 0.007389 -0.038327
v 1.847245 0.007389 0.038327
v 1.540631 0.538459 0.038327
v 1.540631 0.538459 -0.038327
v 1.143169 -0.038603 0.038327
v 1.143169 -0.038603 -0.038327
v 1.449783 0.492467 -0.038327
v 1.449783 0.492467 0.038327
v 1.063509 0.007389 0.038327
v 1.063509 0.007389 -0.038327
v 1.370122 0.538459 -0.038327
v 1.370122 0.538459 0.038327
v 0.972660 -0.038603 -0.038327
v 0.972660 -0.038603 0.038327
v 0.666047 0.492467 0.038327
v 0.666047 0.492467 -0.038327
v 1.052321 0.007389 -0.038327
v 1.052321 0.007389 0.038327
v 0.745707 0.538459 0.038327
v 0.745707 0.538459 -0.038327
v 0.348246 -0.038603 0.038327
v 0.348246 -0.038603 -0.038327
v 0.654859 0.492467 -0.038327
v 0.654859 0.492467 0.038327
v 0.268585 0.007389 0.038327
v 0.268585 0.007389 -0.038327
v 0.575198 0.538459 -0.038327
v 0.575198 0.538459 0.038327
v 3.357433 -0.038603 -0.038327
v 3.357433 -0.038603 0.038326
v 3.050819 0.492467 0.038327
v 3.050819 0.492467 -0.038327
v 3.437093 0.007389 -0.038327
v 3.437093 0.007389 0.038326
v 3.130480 0.538459 0.038327
v 3.130480 0.538459 -0.038327
vt 0.0690 0.0178
vt 0.1117 0.0178
vt 0.1117 0.9822
vt 0.0690 0.9822
vt 0.2056 0.0178
vt 0.2056 0.9822
vt 0.1629 0.9822
vt 0.1629 0.0178
vt 0.4608 0.9674
vt 0.4608 0.9162
vt 0.5035 0.9162
vt 0.5035 0.9674
vt 0.6405 0.9162
vt 0.6405 0.9674
vt 0.5979 0.9674
vt 0.5979 0.9162
vt 0.0178 0.0178
vt 0.0178 0.9822
vt 0.2925 0.0178
vt 0.3351 0.0178
vt 0.3351 0.9822
vt 0.2925 0.9822
vt 0.4290 0.0178
vt 0.4290 0.9822
vt 0.3863 0.9822
vt 0.3863 0.0178
vt 0.6762 0.9674
vt 0.6762 0.9162
vt 0.7189 0.9162
vt 0.7189 0.9674
vt 0.5298 0.9661
vt 0.5298 0.9149
vt 0.5725 0.9149
vt 0.5725 0.9661
vt 0.2413 0.0178
vt 0.2413 0.9822
vt 0.7031 0.4222
vt 0.6801 0.4222
vt 0.6801 0.2379
vt 0.7031 0.2379
vt 0.6294 0.4222
vt 0.6294 0.2379
vt 0.6525 0.2379
vt 0.6525 0.4222
vt 0.5154 0.6422
vt 0.5154 0.4579
vt 0.5384 0.4579
vt 0.5384 0.6422
vt 0.4877 0.6422
vt 0.4647 0.6422
vt 0.4647 0.4579
vt 0.4877 0.4579
vt 0.6018 0.4222
vt 0.6018 0.2379
vt 0.5661 0.6422
vt 0.5661 0.4579
vt 0.6021 0.6819
vt 0.6252 0.6819
vt 0.6252 0.8662
vt 0.6021 0.8662
vt 0.6758 0.6819
vt 0.6758 0.8662
vt 0.6528 0.8662
vt 0.6528 0.6819
vt 0.5154 0.2022
vt 0.5154 0.0178
vt 0.5384 0.0178
vt 0.5384 0.2022
vt 0.4877 0.2022
vt 0.4647 0.2022
vt 0.4647 0.0178
vt 0.4877 0.0178
vt 0.7035 0.6819
vt 0.7035 0.8662
vt 0.5661 0.2022
vt 0.5661 0.0178
vt 0.5668 0.8597
vt 0.5437 0.8597
vt 0.5437 0.6754
vt 0.5668 0.6754
vt 0.4930 0.8597
vt 0.4930 0.6754
vt 0.5161 0.6754
vt 0.5161 0.8597
vt 0.6525 0.6422
vt 0.6525 0.4579
vt 0.6755 0.4579
vt 0.6755 0.6422
vt 0.6248 0.6422
vt 0.6018 0.6422
vt 0.6018 0.4579
vt 0.6248 0.4579
vt 0.4654 0.8597
vt 0.4654 0.6754
vt 0.7031 0.6422
vt 0.7031 0.4579
vt 0.7031 0.2022
vt 0.6801 0.2022
vt 0.6801 0.0178
vt 0.7031 0.0178
vt 0.6294 0.2022
vt 0.6294 0.0178
vt 0.6525 0.0178
vt 0.6525 0.2022
vt 0.6018 0.2022
vt 0.6018 0.0178
vt 0.5154 0.4222
vt 0.5154 0.2379
vt 0.5384 0.2379
vt 0.5384 0.4222
vt 0.4877 0.4222
vt 0.4647 0.4222
vt 0.4647 0.2379
vt 0.4877 0.2379
vt 0.5661 0.4222
vt 0.5661 0.2379
vn 0.0000 -1.0000 0.0000
vn 0.0000 1.0000 -0.0000
vn -1.0000 0.0000 -0.0000
vn -0.0000 -0.0000 -1.0000
vn 1.0000 -0.0000 0.0000
vn 0.0000 0.0000 1.0000
vn 0.8660 -0.5000 -0.0000
vn -0.8660 0.5000 -0.0000
vn 0.8660 0.5000 0.0000
vn -0.8660 -0.5000 0.0000
usemtl Material
s off
f 117/139/11 118/140/11 119/141/11 120/142/11
f 121/143/12 124/144/12 123/145/12 122/146/12
f 117/147/13 121/148/13 122/149/13 118/150/13
f 118/140/14 122/146/14 123/145/14 119/141/14
f 119/151/15 123/152/15 124/153/15 120/154/15
f 121/155/16 117/139/16 120/142/16 124/156/16
f 125/157/11 126/158/11 127/159/11 128/160/11
f 129/161/12 132/162/12 131/163/12 130/164/12
f 125/165/13 129/166/13 130/167/13 126/168/13
f 126/158/14 130/164/14 131/163/14 127/159/14
f 127/169/15 131/170/15 132/171/15 128/172/15
f 129/173/16 125/157/16 128/160/16 132/174/16
f 133/175/17 134/176/17 135/177/17 136/178/17
f 137/179/18 140/180/18 139/181/18 138/182/18
f 145/183/19 148/184/19 147/185/19 146/186/19
f 134/176/14 138/182/14 139/181/14 135/177/14
f 141/187/20 142/188/20 143/189/20 144/190/20
f 137/179/16 133/191/16 136/192/16 140/180/16
f 142/193/16 146/186/16 147/185/16 143/194/16
f 145/183/14 141/187/14 144/190/14 148/184/14
f 149/195/17 150/196/17 151/197/17 152/198/17
f 153/199/18 156/200/18 155/201/18 154/202/18
f 161/203/19 164/204/19 163/205/19 162/206/19
f 150/196/14 154/202/14 155/201/14 151/197/14
f 157/207/20 158/208/20 159/209/20 160/210/20
f 153/199/16 149/211/16 152/212/16 156/200/16
f 158/213/16 162/206/16 163/205/16 159/214/16
f 161/203/14 157/207/14 160/210/14 164/204/14
f 165/215/17 166/216/17 167/217/17 168/218/17
f 169/219/18 172/220/18 171/221/18 170/222/18
f 177/223/19 180/224/19 179/225/19 178/226/19
f 166/216/14 170/222/14 171/221/14 167/217/14
f 173/227/20 174/228/20 175/229/20 176/230/20
f 169/219/16 165/231/16 168/232/16 172/220/16
f 174/233/16 178/226/16 179/225/16 175/234/16
f 177/223/14 173/227/14 176/230/14 180/224/14
f 181/235/17 182/236/17 183/237/17 184/238/17
f 185/239/18 188/240/18 187/241/18 186/242/18
f 182/236/14 186/242/14 187/241/14 183/237/14
f 185/239/16 181/243/16 184/244/16 188/240/16
f 193/245/19 196/246/19 195/247/19 194/248/19
f 189/249/20 190/250/20 191/251/20 192/252/20
f 190/253/16 194/248/16 195/247/16 191/254/16
f 193/245/14 189/249/14 192/252/14 196/246/14
